<svg width="80" height="40" viewBox="0 0 80 40" fill="none" xmlns="http://www.w3.org/2000/svg">
<rect width="80" height="40" rx="20" fill="#F0F6FD"/>
<path d="M33.5262 16.6685C33.4058 16.6685 33.3081 16.7661 33.3081 16.8865V28.2237C33.3081 28.3442 33.4058 28.4417 33.5262 28.4417H45.7355C45.8559 28.4417 45.9535 28.3442 45.9535 28.2237V16.8865C45.9535 16.7661 45.8559 16.6685 45.7355 16.6685H33.5262ZM32 16.8865C32 16.0436 32.6833 15.3604 33.5262 15.3604H45.7355C46.5783 15.3604 47.2616 16.0436 47.2616 16.8865V28.2237C47.2616 29.0666 46.5783 29.7499 45.7355 29.7499H33.5262C32.6833 29.7499 32 29.0666 32 28.2237V16.8865Z" fill="#0F73F6"/>
<path d="M39.6302 12.3081C38.3057 12.3081 37.232 13.3819 37.232 14.7064V17.7587C37.232 18.12 36.9391 18.4128 36.5779 18.4128C36.2167 18.4128 35.9238 18.12 35.9238 17.7587V14.7064C35.9238 12.6594 37.5832 11 39.6302 11C41.6772 11 43.3366 12.6594 43.3366 14.7064V17.7587C43.3366 18.12 43.0438 18.4128 42.6825 18.4128C42.3213 18.4128 42.0285 18.12 42.0285 17.7587V14.7064C42.0285 13.3819 40.9548 12.3081 39.6302 12.3081Z" fill="#0F73F6"/>
</svg>
