<svg width="20" height="20" viewBox="0 0 20 20" fill="none" xmlns="http://www.w3.org/2000/svg">
<path fill-rule="evenodd" clip-rule="evenodd" d="M3.90625 0H16.0938C17.1291 0.00199254 18.1216 0.414183 18.8537 1.14632C19.5858 1.87845 19.998 2.87086 20 3.90625V16.0938C19.998 17.1291 19.5858 18.1216 18.8537 18.8537C18.1216 19.5858 17.1291 19.998 16.0938 20H3.90625C2.87086 19.998 1.87845 19.5858 1.14632 18.8537C0.414183 18.1216 0.00199254 17.1291 0 16.0938L0 3.90625C0.00199254 2.87086 0.414183 1.87845 1.14632 1.14632C1.87845 0.414183 2.87086 0.00199254 3.90625 0ZM4.14062 15.127C4.14068 15.3212 4.21786 15.5075 4.35521 15.6448C4.49255 15.7822 4.67882 15.8593 4.87305 15.8594H8.70637C8.80319 15.8604 8.89924 15.8422 8.98898 15.8058C9.07872 15.7695 9.16036 15.7157 9.22918 15.6475C9.298 15.5794 9.35263 15.4984 9.38991 15.409C9.4272 15.3196 9.44639 15.2238 9.44639 15.127C9.44639 15.0301 9.4272 14.9343 9.38991 14.8449C9.35263 14.7555 9.298 14.6745 9.22918 14.6064C9.16036 14.5382 9.07872 14.4845 8.98898 14.4481C8.89924 14.4117 8.80319 14.3935 8.70637 14.3945H6.64133L9.36789 11.668C9.50528 11.5306 9.58247 11.3443 9.58249 11.15C9.58251 10.9557 9.50535 10.7694 9.36799 10.632C9.29997 10.564 9.21922 10.51 9.13035 10.4732C9.04148 10.4364 8.94623 10.4174 8.85003 10.4174C8.65575 10.4174 8.46942 10.4946 8.33203 10.6319L5.60547 13.3589V11.2936C5.60348 11.1007 5.52543 10.9163 5.38829 10.7806C5.25115 10.6449 5.066 10.5687 4.87305 10.5687C4.6801 10.5687 4.49494 10.6449 4.3578 10.7806C4.22066 10.9163 4.14262 11.1007 4.14062 11.2936V15.127ZM15.8594 4.87309C15.8593 4.67884 15.7822 4.49257 15.6448 4.35522C15.5075 4.21786 15.3212 4.14068 15.127 4.14062H11.2936C11.1968 4.13963 11.1008 4.15783 11.011 4.19419C10.9213 4.23055 10.8396 4.28434 10.7708 4.35245C10.702 4.42056 10.6474 4.50164 10.6101 4.591C10.5728 4.68036 10.5536 4.77622 10.5536 4.87305C10.5536 4.96987 10.5728 5.06574 10.6101 5.15509C10.6474 5.24445 10.702 5.32553 10.7708 5.39364C10.8396 5.46175 10.9213 5.51554 11.011 5.5519C11.1008 5.58826 11.1968 5.60647 11.2936 5.60547H13.3589L10.6319 8.33203C10.4945 8.46942 10.4173 8.65576 10.4173 8.85006C10.4173 9.04436 10.4945 9.2307 10.6319 9.36809C10.7693 9.50548 10.9556 9.58266 11.1499 9.58266C11.3442 9.58266 11.5306 9.50548 11.668 9.36809L14.3945 6.64113V8.70641C14.3965 8.89935 14.4746 9.08371 14.6117 9.21944C14.7488 9.35517 14.934 9.4313 15.127 9.4313C15.3199 9.4313 15.5051 9.35517 15.6422 9.21944C15.7793 9.08371 15.8574 8.89935 15.8594 8.70641V4.87309Z" fill="#0F73F6"/>
</svg>
