<svg width="20" height="20" viewBox="0 0 20 20" fill="none" xmlns="http://www.w3.org/2000/svg">
<path fill-rule="evenodd" clip-rule="evenodd" d="M10.3604 0V4.60953C11.6104 4.5919 12.8553 4.44543 14.0753 4.1722C13.2314 1.8141 11.8902 0.217357 10.3604 0ZM15.0038 9.6255H10.3604V5.32463C11.6863 5.30717 13.0069 5.1497 14.2998 4.85482C14.7487 6.406 14.9856 8.01077 15.0038 9.6255ZM20.0065 10.3406H15.7195C15.7032 12.0145 15.4604 13.6785 14.9976 15.2872C15.9414 15.5393 16.8522 15.9018 17.7111 16.3671C19.1214 14.6673 19.9287 12.548 20.0065 10.3406ZM14.0753 15.7939C13.2314 18.152 11.8902 19.7487 10.3604 19.9661V15.3566C11.6104 15.374 12.8553 15.5207 14.0753 15.7939ZM13.0748 19.5096C12.9854 19.5385 12.8953 19.5649 12.8049 19.5911L12.7288 19.614C12.6792 19.629 12.6292 19.6441 12.5786 19.6583C12.5642 19.6621 12.5497 19.6655 12.5352 19.6689C12.5207 19.6723 12.5062 19.6757 12.4917 19.6794C13.55 18.6518 14.3355 17.3763 14.7768 15.9688C15.6255 16.1926 16.4469 16.5088 17.2268 16.9116C17.2213 16.9172 17.216 16.923 17.2108 16.9288C17.2057 16.9344 17.2007 16.9399 17.1955 16.9453C17.1546 16.9876 17.1126 17.0288 17.0706 17.0699L17.0704 17.0701L17.0232 17.1165L17.0001 17.1392L17.0001 17.1393L17.0001 17.1393L17.0001 17.1393L17.0001 17.1393L17 17.1393L17 17.1394L17 17.1394L17 17.1394L16.9999 17.1394L16.9999 17.1395L16.9999 17.1395L16.9999 17.1395L16.9999 17.1395C16.9411 17.1974 16.8822 17.2555 16.8219 17.3117C16.7741 17.3563 16.7251 17.3997 16.6761 17.4431L16.6759 17.4432L16.6407 17.4744L16.6115 17.5003C16.5521 17.5531 16.4929 17.6057 16.4315 17.6567C16.3739 17.7047 16.3156 17.7512 16.2571 17.7978L16.257 17.7979L16.2568 17.7981L16.2416 17.8102C16.1698 17.8674 16.0965 17.9245 16.0249 17.9797C15.96 18.0275 15.8938 18.075 15.8273 18.1227C15.7533 18.1756 15.6789 18.2285 15.6035 18.2793C15.5359 18.325 15.4675 18.3694 15.3989 18.413C15.3222 18.4607 15.2451 18.5083 15.1675 18.556C15.0979 18.5979 15.0289 18.6386 14.9573 18.6791C14.8783 18.7241 14.7986 18.7679 14.7185 18.8109C14.6469 18.8491 14.5755 18.8863 14.504 18.9228C14.4224 18.964 14.3402 19.0036 14.2576 19.0425C14.1846 19.0766 14.1117 19.1105 14.0382 19.1428C13.9673 19.1729 13.8959 19.2029 13.8242 19.233L13.7838 19.25L13.7765 19.2529L13.7765 19.2529L13.7765 19.2529L13.7765 19.2529L13.7765 19.2529L13.7764 19.2529L13.7764 19.2529L13.7764 19.2529L13.7764 19.2529L13.7764 19.253L13.7764 19.253L13.7763 19.253L13.7763 19.253L13.7763 19.253L13.7763 19.253C13.705 19.282 13.6338 19.311 13.5619 19.3383C13.4746 19.3715 13.387 19.4027 13.299 19.4331L13.2833 19.4386C13.2141 19.4628 13.1449 19.487 13.0748 19.5096ZM14.2998 15.1114C13.0069 14.8166 11.6863 14.6591 10.3604 14.6415V10.3406H15.0038C14.9856 11.9553 14.7487 13.5603 14.2998 15.1114ZM17.7111 3.59904C16.8522 4.06431 15.9414 4.42674 14.9976 4.67884C15.4604 6.28763 15.7032 7.95159 15.7195 9.6255H20.0065C19.9285 7.41824 19.1212 5.29896 17.7111 3.59904ZM17.2091 3.03629C17.2154 3.04318 17.2216 3.05006 17.2281 3.05661C16.4475 3.46007 15.6249 3.77642 14.7754 4.00024C14.3338 2.59257 13.5486 1.31723 12.4902 0.289634C12.503 0.292948 12.5159 0.29599 12.5287 0.29903L12.5288 0.299035C12.545 0.302879 12.5613 0.306721 12.5774 0.311108C12.6456 0.32917 12.7135 0.349102 12.7811 0.368945L12.8017 0.375005C12.8935 0.401542 12.9829 0.427904 13.0723 0.456885C13.1477 0.481327 13.2221 0.50734 13.2965 0.533527C13.3845 0.563905 13.4724 0.594981 13.5592 0.628152C13.6336 0.656434 13.7069 0.686113 13.7806 0.716142C13.8088 0.727988 13.8371 0.739623 13.8654 0.751251L13.8654 0.751257L13.8654 0.751274L13.8654 0.751277C13.9225 0.774771 13.9795 0.798234 14.0362 0.823336C14.1098 0.855634 14.1825 0.888805 14.2541 0.922849C14.3391 0.96213 14.422 1.00211 14.5042 1.04366C14.54 1.06154 14.5757 1.08021 14.6114 1.09888L14.6115 1.09892L14.6116 1.09895C14.6473 1.11762 14.683 1.13629 14.7188 1.15417C14.7996 1.19747 14.8798 1.24181 14.9597 1.28755C15.0296 1.32718 15.0992 1.36804 15.1682 1.40941C15.2469 1.45655 15.3241 1.50526 15.4014 1.55502C15.4693 1.59814 15.5372 1.64213 15.6041 1.68718C15.6802 1.73833 15.7553 1.79193 15.83 1.8457C15.8958 1.89284 15.9613 1.93997 16.0259 1.98868C16.0996 2.04403 16.1729 2.10164 16.2445 2.1596L16.2717 2.18125L16.2717 2.18128L16.2717 2.1813C16.3256 2.22417 16.3796 2.26717 16.4325 2.31184C16.496 2.36477 16.558 2.41979 16.6199 2.47466L16.6199 2.47469L16.6424 2.49463C16.6667 2.51664 16.6911 2.53821 16.7154 2.5597L16.7155 2.55982L16.7157 2.55994L16.7158 2.56003L16.7159 2.56016L16.716 2.56018L16.716 2.5602C16.7522 2.59222 16.7883 2.62408 16.8236 2.65699C16.8816 2.71088 16.938 2.76665 16.9943 2.82229L16.9943 2.82232L17.0245 2.85217L17.0717 2.89839L17.0717 2.89843L17.0717 2.89845C17.1139 2.93968 17.1562 2.981 17.1974 3.02344L17.2091 3.03629ZM0 9.6255H4.28708C4.30331 7.95159 4.54616 6.28763 5.00881 4.67884C4.06518 4.42692 3.15438 4.06448 2.29543 3.59904C0.885139 5.29879 0.0778644 7.41824 0 9.6255ZM9.64563 15.3566V19.9661C8.11575 19.7487 6.77443 18.152 5.93066 15.7939C7.15066 15.5207 8.39561 15.3742 9.64563 15.3566ZM9.64584 10.3406H5.00244C5.0206 11.9553 5.25733 13.5603 5.70636 15.1114C6.99933 14.8164 8.31971 14.6589 9.64584 14.6415V10.3406ZM5.93066 4.1722C6.77443 1.8141 8.11575 0.217357 9.64563 0V4.60953C8.39561 4.59208 7.15066 4.4456 5.93066 4.1722ZM9.64584 5.32463C8.31988 5.30717 6.99933 5.1497 5.70636 4.85482C5.25733 6.406 5.0206 8.01077 5.00244 9.6255H9.64584V5.32463ZM7.47033 0.299848C7.48482 0.296444 7.49931 0.293039 7.5138 0.289286C6.45599 1.31636 5.67107 2.591 5.22972 3.99779C4.38107 3.77398 3.55948 3.45781 2.77979 3.05487C2.78587 3.04868 2.79168 3.04222 2.79743 3.03583C2.80191 3.03085 2.80635 3.02591 2.81086 3.02117C2.85129 2.97937 2.89278 2.93874 2.9342 2.89817L2.93422 2.89816L2.9837 2.84956L3.01219 2.82149L3.0122 2.82147C3.06903 2.76545 3.12594 2.70937 3.18412 2.65507C3.22701 2.61456 3.27089 2.57586 3.31486 2.53708L3.36656 2.49131L3.39715 2.46417C3.45572 2.41215 3.51404 2.36036 3.57501 2.31009C3.62631 2.26672 3.67892 2.22477 3.73147 2.18288L3.73147 2.18287L3.73148 2.18286L3.76479 2.15628C3.79399 2.13365 3.82259 2.111 3.85104 2.08846L3.85105 2.08845C3.89436 2.05414 3.9373 2.02013 3.98144 1.98694C4.04656 1.93893 4.11273 1.89144 4.17925 1.84378C4.25327 1.79088 4.32764 1.73798 4.40306 1.68718C4.47063 1.64144 4.53889 1.59709 4.60768 1.5531L4.63662 1.53498C4.70353 1.49309 4.77076 1.451 4.83865 1.41011C4.90761 1.36821 4.97797 1.32719 5.04955 1.28721C5.12846 1.24216 5.2079 1.19817 5.28803 1.15522C5.35943 1.11716 5.43101 1.0798 5.50259 1.04331C5.58412 1.00211 5.66635 0.96248 5.74893 0.923548C5.82191 0.889504 5.89471 0.855635 5.96838 0.823337C6.03744 0.794049 6.10732 0.764642 6.17726 0.735215L6.17731 0.735195L6.22258 0.716143C6.2966 0.685765 6.37027 0.656086 6.445 0.627454C6.52402 0.597502 6.60391 0.569295 6.68375 0.541107L6.68376 0.541104L6.7067 0.533005L6.72471 0.526731C6.79344 0.502793 6.86224 0.478826 6.93208 0.456188C7.02217 0.427556 7.11121 0.401194 7.20094 0.375006L7.25954 0.357931C7.31521 0.34165 7.37074 0.325408 7.42685 0.31041C7.44134 0.306658 7.45583 0.303255 7.47031 0.299851L7.47033 0.299848ZM2.98185 17.1139L3.01925 17.1508C3.07325 17.2041 3.12733 17.2575 3.18279 17.3093C3.21812 17.342 3.25406 17.3737 3.29022 17.4057C3.31482 17.4274 3.33952 17.4492 3.36419 17.4715L3.37253 17.4789L3.37271 17.479C3.43918 17.5382 3.50572 17.5973 3.57403 17.6543C3.63506 17.7055 3.69727 17.7549 3.75967 17.8046L3.76206 17.8065C3.83364 17.8645 3.90505 17.9221 3.98081 17.9778C4.02301 18.0094 4.06566 18.0404 4.10846 18.0716L4.10865 18.0717L4.17617 18.1209C4.2509 18.1745 4.32632 18.2281 4.40243 18.2796C4.4693 18.3247 4.53721 18.3687 4.60513 18.4119C4.68247 18.4615 4.75963 18.5102 4.83837 18.5574C4.90733 18.5989 4.97699 18.6396 5.04682 18.6794C5.12678 18.7252 5.20692 18.7695 5.28775 18.8126C5.32292 18.8302 5.35814 18.8486 5.39338 18.867L5.39357 18.8671C5.4298 18.8861 5.46606 18.905 5.50231 18.9231C5.58454 18.9647 5.66747 19.0047 5.75249 19.0441C5.82407 19.0778 5.8967 19.111 5.97037 19.1435C6.02807 19.169 6.0861 19.1929 6.14428 19.2169L6.1447 19.217C6.17176 19.2282 6.19885 19.2393 6.22596 19.2506C6.29964 19.2807 6.37296 19.3104 6.44733 19.3386C6.5341 19.372 6.62209 19.4031 6.71008 19.4334L6.72567 19.4389L6.72574 19.4389C6.7949 19.4631 6.86412 19.4873 6.93425 19.5099C7.02363 19.5389 7.11302 19.5654 7.20485 19.5918L7.22751 19.5984C7.2944 19.6181 7.36157 19.6378 7.42902 19.6559C7.44501 19.6602 7.46111 19.664 7.4772 19.6678L7.47728 19.6678L7.47729 19.6678C7.49033 19.6709 7.50335 19.674 7.51631 19.6773C6.45798 18.6496 5.67271 17.3742 5.23118 15.9666C4.38253 16.1905 3.56094 16.5067 2.78125 16.9098C2.7872 16.9159 2.79298 16.9222 2.79879 16.9286L2.81215 16.943C2.86558 17.0008 2.92317 17.0568 2.98129 17.1134L2.98141 17.1135L2.98185 17.1139ZM5.00881 15.2872C4.06518 15.5393 3.15438 15.9018 2.29543 16.3671C0.885139 14.6671 0.0780389 12.5479 0 10.3406H4.28708C4.30331 12.0145 4.54616 13.6785 5.00881 15.2872Z" fill="#0F73F6"/>
</svg>
