<svg width="44" height="44" viewBox="0 0 44 44" fill="none" xmlns="http://www.w3.org/2000/svg">
<rect width="44" height="44" rx="22" fill="#F0F6FD"/>
<path d="M29.0711 24.9289C27.9819 23.8398 26.6855 23.0335 25.2711 22.5454C26.786 21.502 27.7812 19.7558 27.7812 17.7812C27.7812 14.5935 25.1878 12 22 12C18.8122 12 16.2188 14.5935 16.2188 17.7812C16.2188 19.7558 17.214 21.502 18.729 22.5454C17.3145 23.0335 16.0181 23.8398 14.9289 24.9289C13.0402 26.8177 12 29.3289 12 32H13.5625C13.5625 27.3475 17.3475 23.5625 22 23.5625C26.6525 23.5625 30.4375 27.3475 30.4375 32H32C32 29.3289 30.9598 26.8177 29.0711 24.9289ZM22 22C19.6738 22 17.7812 20.1075 17.7812 17.7812C17.7812 15.455 19.6738 13.5625 22 13.5625C24.3262 13.5625 26.2188 15.455 26.2188 17.7812C26.2188 20.1075 24.3262 22 22 22Z" fill="#0F73F6"/>
</svg>
