<svg width="44" height="44" viewBox="0 0 44 44" fill="none" xmlns="http://www.w3.org/2000/svg">
<rect width="44" height="44" rx="22" fill="#F0F6FD"/>
<path d="M15.5262 18.6685C15.4058 18.6685 15.3081 18.7661 15.3081 18.8865V30.2237C15.3081 30.3442 15.4058 30.4417 15.5262 30.4417H27.7355C27.8559 30.4417 27.9535 30.3442 27.9535 30.2237V18.8865C27.9535 18.7661 27.8559 18.6685 27.7355 18.6685H15.5262ZM14 18.8865C14 18.0436 14.6833 17.3604 15.5262 17.3604H27.7355C28.5783 17.3604 29.2616 18.0436 29.2616 18.8865V30.2237C29.2616 31.0666 28.5783 31.7499 27.7355 31.7499H15.5262C14.6833 31.7499 14 31.0666 14 30.2237V18.8865Z" fill="#0F73F6"/>
<path d="M21.6302 14.3081C20.3057 14.3081 19.232 15.3819 19.232 16.7064V19.7587C19.232 20.12 18.9391 20.4128 18.5779 20.4128C18.2167 20.4128 17.9238 20.12 17.9238 19.7587V16.7064C17.9238 14.6594 19.5832 13 21.6302 13C23.6772 13 25.3366 14.6594 25.3366 16.7064V19.7587C25.3366 20.12 25.0438 20.4128 24.6825 20.4128C24.3213 20.4128 24.0285 20.12 24.0285 19.7587V16.7064C24.0285 15.3819 22.9548 14.3081 21.6302 14.3081Z" fill="#0F73F6"/>
</svg>
